<svg width="400" height="400" viewBox="0 0 400 400" fill="none" xmlns="http://www.w3.org/2000/svg">
  <!-- Hand-drawn style circle and arrow -->
  <path d="M50 200 C 50 100, 150 50, 250 80 C 350 110, 380 200, 320 280 C 260 360, 120 380, 70 300 C 20 220, 40 180, 80 150" stroke="#E8221A" stroke-width="4" stroke-linecap="round" stroke-linejoin="round" fill="none" opacity="0.8"/>
  <path d="M250 80 L 220 50 M250 80 L 220 110" stroke="#E8221A" stroke-width="4" stroke-linecap="round" stroke-linejoin="round" opacity="0.8"/>
  
  <!-- Hand-written style text "drop any URL" -->
  <path d="M120 180 Q 130 150 140 180 T 160 180 M180 180 Q 190 150 200 180 T 220 180 M240 180 Q 250 150 260 180 T 280 180" stroke="#0B50C0" stroke-width="3" stroke-linecap="round" fill="none"/>
  
  <!-- Scribble star -->
  <path d="M80 80 L 100 120 L 140 110 L 110 140 L 120 180 L 90 150 L 50 160 L 70 130 Z" stroke="#FFCF00" stroke-width="3" stroke-linejoin="round" fill="none" opacity="0.9"/>
  
  <!-- Text: "magic happens here ->" -->
  <path d="M150 280 Q 200 270 250 300 M240 270 L 250 300 L 220 310" stroke="#111111" stroke-width="3" stroke-linecap="round" stroke-linejoin="round" fill="none" opacity="0.5"/>
</svg>
